<svg width="42" height="42" viewBox="0 0 42 42" fill="none" xmlns="http://www.w3.org/2000/svg">
<path d="M23.625 36.75H18.375C17.6788 36.75 17.0111 36.4734 16.5188 35.9812C16.0266 35.4889 15.75 34.8212 15.75 34.125V24.1631L6.02438 14.4375C5.53142 13.9475 5.25293 13.2819 5.25 12.5869V7.875C5.25 7.17881 5.52656 6.51113 6.01884 6.01884C6.51113 5.52656 7.17881 5.25 7.875 5.25H34.125C34.8212 5.25 35.4889 5.52656 35.9812 6.01884C36.4734 6.51113 36.75 7.17881 36.75 7.875V12.5869C36.7471 13.2819 36.4686 13.9475 35.9756 14.4375L26.25 24.1631V34.125C26.25 34.8212 25.9734 35.4889 25.4812 35.9812C24.9889 36.4734 24.3212 36.75 23.625 36.75ZM7.875 7.875V12.5869L18.375 23.0869V34.125H23.625V23.0869L34.125 12.5869V7.875H7.875Z" fill="black"/>
</svg>
